/* XPM */
static char *_dc5a639d3cd4fb5c6aa14ec1aebd173E80EhUu2xBctc62R[] = {
/* columns rows colors chars-per-pixel */
"64 64 162 2 ",
"   c None",
".  c #060606",
"X  c #0C0C0C",
"o  c #120F0C",
"O  c #16120F",
"+  c #1B150E",
"@  c #0E0D10",
"#  c #100F10",
"$  c #141313",
"%  c #1A1614",
"&  c #1D1915",
"*  c #1B1718",
"=  c #171818",
"-  c #1B1B1B",
";  c #201711",
":  c #241B14",
">  c #291F16",
",  c #211E1C",
"<  c #1F201F",
"1  c #2C2117",
"2  c #24211D",
"3  c #2C231A",
"4  c #33261C",
"5  c #35291E",
"6  c #392B1E",
"7  c #1F2021",
"8  c #242423",
"9  c #2A2625",
"0  c #2B2926",
"q  c #2C2C2B",
"w  c #332B23",
"e  c #3B2D22",
"r  c #312F2C",
"t  c #3F3124",
"y  c #33312E",
"u  c #3B342D",
"i  c #2F2F31",
"p  c #343332",
"a  c #383532",
"s  c #3D3935",
"d  c #3D3C3A",
"f  c #422F21",
"g  c #443325",
"h  c #483626",
"j  c #4B3827",
"k  c #43362A",
"l  c #4A3729",
"z  c #46392D",
"x  c #4D3A2A",
"c  c #523E2D",
"v  c #423C35",
"b  c #493D32",
"n  c #423F3A",
"m  c #55412E",
"M  c #58422F",
"N  c #44413B",
"B  c #4A433B",
"V  c #564231",
"C  c #5B4532",
"Z  c #564837",
"A  c #5E4834",
"S  c #514539",
"D  c #584639",
"F  c #574A3E",
"G  c #5C4B3B",
"H  c #604734",
"J  c #624B36",
"K  c #654D39",
"L  c #694E39",
"P  c #6C5137",
"I  c #665039",
"U  c #6E523C",
"Y  c #6C533C",
"T  c #6D543D",
"R  c #6E543C",
"E  c #6E543D",
"W  c #6F543D",
"Q  c #6F543E",
"!  c #6F553E",
"~  c #6F563E",
"^  c #6B523C",
"/  c #71563D",
"(  c #71563E",
")  c #70563F",
"_  c #71563F",
"`  c #71573F",
"'  c #72573F",
"]  c #71563E",
"[  c #73583F",
"{  c #73583F",
"}  c #454442",
"|  c #454443",
" . c #4B4641",
".. c #4E4B47",
"X. c #4F4D49",
"o. c #504840",
"O. c #544A41",
"+. c #544D42",
"@. c #544B44",
"#. c #564E46",
"$. c #564B42",
"%. c #5D4D41",
"&. c #524D48",
"*. c #534D48",
"=. c #5C534A",
"-. c #5E5B58",
";. c #635344",
":. c #6B5642",
">. c #6E5541",
",. c #715740",
"<. c #725741",
"1. c #725740",
"2. c #725840",
"3. c #735941",
"4. c #735842",
"5. c #745940",
"6. c #755941",
"7. c #775841",
"8. c #755B41",
"9. c #765A41",
"0. c #765B43",
"q. c #755B44",
"w. c #755A42",
"e. c #795B43",
"r. c #785C42",
"t. c #7B5D43",
"y. c #7B5C42",
"u. c #7E5E43",
"i. c #7A5D44",
"p. c #795E45",
"a. c #7C5E44",
"s. c #7D5F46",
"d. c #7A5D44",
"f. c #645B52",
"g. c #605E5B",
"h. c #7D6045",
"j. c #7E6145",
"k. c #7D6047",
"l. c #7E6346",
"z. c #7D6146",
"x. c #73614F",
"c. c #7E624A",
"v. c #806246",
"b. c #816349",
"n. c #816449",
"m. c #82654B",
"M. c #87654B",
"N. c #84674B",
"B. c #84674A",
"V. c #86674B",
"C. c #82644A",
"Z. c #86684D",
"A. c #8D6C4F",
"S. c #8A694D",
"D. c #8F6C50",
"F. c #926F52",
"G. c #927153",
"H. c #897B6F",
"J. c #8A8276",
"K. c #8F8882",
"L. c #9E9896",
"P. c #A09891",
/* pixels */
"I I I I I I I I I I I I I I I I I C L K L h.> u.M U E L h H 9.h.Y ( 9.x b.V.9.n.9.K t.c U L H 6                                 ",
"                I I I I I I I I ( H L C I C > V.C J E ( x K h.n.U 9.i.h A.V.[ V.H J V.C H M M g                                 ",
"                                E A A M C h 6 e.C K H K C C a.b.E 4.9.g a.i.9.h.K H 9.C J M C M                                 ",
"                                K ^ I C J c a I H ,.H I Z G t.V.U E ( 6 e.a.^ Y H C h.K ,.H Y M                                 ",
"                                M A I K I u d +.L 4.E K q g.:.A.t.( K B q.L J L H g t.U 4.E ( L                                 ",
"                                a q G ^ C 3 - u C 4.( c 2 q D a.I L z - &.H K A @.-.I K ,.( I E                                 ",
"                                r a y c V y = t K 9.I C a 9 t K K H z - 0 K K C 2 - S Y 4.H L i.                                ",
"                                0 0 s $ q q 0 S o.O.F n - 0 z b b S s - 0 k G Z p - V H F #.A h                                 ",
"                                8 8 N , d 8 8 9 q y q y 9 p r a a d 8 8 9 q q q X 8 q a 0 9 } c                                 ",
"                                0 9 ..2 y $ $ $ $ $ $ - r $ $ $ $ X $ p - $ $ X . q & 2 , - 0 V                                 ",
"                                q 9 u 3 q i s w 2 2 & - $ =.: e w w , -  .; : & 0 y b V g k c A                                 ",
"                                n 0 a o > $ } K H C x l & p D K M l l p &.x c t 8 q S p.q.K E C                                 ",
"                                q q G A C w 7 =.t.n.U C  .q S ,.Y C t X 0 A M h 4 , K i.4.,.( H                                 ",
"                                C Y E 4.V 0 - 0 U ( t.A $ 9 x ( H C l % l A H C V 4 i.,.E E [ A                                 ",
"                                H I p.^ C 4 $ C J ( E C 3 g H K K C ^ 1 E K K H H l i.,.Y ^ 9.C                                 ",
"                                L ^ ( H C c + h.9.( E L x A i.I I H ,.c t.I K H K 4 v.4.E Y ( H                                 ",
"                                H K Y Y A C g t.h.U [ H V K L L A Y r.I ( Y K C C 6 t.J E E n.H                                 ",
"                                H J ( ( A H t u.t.E ( H 6 c.H C H ^ 9.V ( I C H M H u.K Y Y S.c                                 ",
"                                J K K K K K h v.h.Y K C g c.I A A ( E x ( K C L M r.h.K Y I v.M                                 ",
"                                I H ( ,.^ I h a.( ( U H c E Y J [ 6.h.m L Y K i.c H v.I Y Y ' C                                 ",
"                                Y K 9.a.Y ( l b.A I K L C >.p.E 9.k.a.c H Y I 9.c V i.( E I ' I                                 ",
"                                Y ( e.a.E U l ( H 9.b.t.C A V.^ t.,.h.z ( ( ( ( L m h.E >.I ( E                                 ",
"                                H ( 9.e.H J e a.K 4.n.9.A c b.9.Z.n.Y e i.K ^ e.x g h.i.L K r.I                                 ",
"                                ^ 9.9.( c A t F.^ ( n.9.V c Y k.h.h.V 4 9.E 9.b.c 6 a.h.H H h.Y                                 ",
"                                Y Y ( E H M 4 S.H I 9.i.x c L 9.( k.( 1 Y ( E 9.C C v.( C K ,.C                                 ",
"                                ( K Y E K H 5 t.M K Y ( x C K 9.i.k.,.6 ( ( U K H c V.Y H K L C                                 ",
"                                H L Y E I K 5 P J K J Y M C H a.n.b.^ 1 U 9.9.K L D D.K K H K M                                 ",
"                                H L Y I C I 5 e.L L K K C M c 9.( 9.Y 1 ( ,.9.c K c S.( 9.H ^ C                                 ",
"                                K I Y I C / g ( M I K ;.V M C i.h.U L ; e.( U M J h G.9.9.K I M                                 ",
"                                C L H L C { e I J H A M H c M ,.{ 9.K > u.e.;.%.D g V.>.9.C H x                                 ",
"                                A H %.L.x 9.5 ( M J.;.H C H C x.P.c U 1 S.( K.f., h a.[ x.H.h x                                 ",
"                                H C D > 5 a.4 ( g O.: c c H M F 9 4 { e V.x b + 0 h b.Y k 2 5 M                                 ",
"                                ^ c x 1 h i.> u.l g g M h J H H 5 C a.g c.f.a 0 9 B >.K C 1 g C                                 ",
"                                E C J M K C : n.C H J H l J H r.K 4.Y x a > % 9 X o 9 A K A A C                                 ",
"                                L C C c M l 6 ' C A M M x C K 9.I E K B + c % X o 4 w 3 K A K K                                 ",
"                                H C K c C C 4 9.A I C K x A C r.K I J s g I g 6 c e D $ I K J J                                 ",
"                                A M I H I U 5 ( K I K L C M K k.E I c s C C C C I g >.o E I K K                                 ",
"                                C A K K H J g ( C K K H A A K ( A H h N g H C C H h K % L K H C                                 ",
"                                H M ^ J E Y t ( J K H A K J H A C C M X , J M V Z z , 1 J A K C                                 ",
"                                C K H C K K 4 9.K H H C l K A M c M c o 3 X w e y X : x H K i.h                                 ",
"                                M I C x H H 1 I H C C C x C V C C c l > x ; o O + & C A L K k.c                                 ",
"                                C J V A V A 4 ^ K C K C V C c C C M H 4 H e e 6 g e Y A H H >.x                                 ",
"                                A ^ K J C C 4 ( ^ H H C c x c V V V H 1 I M V M M l K A H A ^ h                                 ",
"                                A I ^ C V K > ( ^ K A A x M c x x l I : L M D C M x L J A M H x                                 ",
"                                C ^ ^ K C I + >.^ H A A x C x x j M K : J C V V M l L C ^ c V m                                 ",
"                                M H K K J C ; Y A D C H x V c c c C A ; H m M M M e H M A V C h                                 ",
"                                x C K C C M : K A C V J h c M c C A x > J M M M M e K M A C C g                                 ",
"                                c c C c c l 0 C A C C C z S c x A H C : L C M c C 1 Y J A C V x                                 ",
"                                h x C C x 0 p n l C C J 8 X.z x C I l r A C c h l : K K C A c l                                 ",
"                                q 8 z M l : $ w l C C C % 9 w g c A k - n x x g v ..V H C A x 4                                 ",
"                                9 0 0 h k 0 $ w l M M c 9 , 3 j M C w $ 2 g x j $ $ z J M C l e                                 ",
"                                8 8 q $ 8 8 2 u s v v y = 2 w z z k u $ 2 k l x 9 $ e x z N 5 g                                 ",
"                                , - y * y - - - 8 9 8 9 - 9 9 q 0 q - - - 8 8 9 X - 9 q < , a e                                 ",
"                                2 , d - 0 $ X $ X # $ $ 9 X $ X X X $ 9 % $ X X . 8 o % = $ , e                                 ",
"                                8 2 0 : 8 9 q & & & O $ @ N + e e 2 $ $ n ; > : 8 9 w 4 > w 4 l                                 ",
"                                y 2 q + o o p k e g e g % q z V c h & q d l V h 9 8 b x x l h g                                 ",
"                                8 8 k t 1 , - n h x c x a 9 u V c l 3 X 2 x M l e $ M l x l t e                                 ",
"                                x x c l 4 , $ , h x x t o , w V M h h $ 5 V c c l 1 C g x x h t                                 ",
"                                l c M x e 1 o 6 x c x g : 5 h A x x x O j C C V M e c x c x c g                                 ",
"                                x l m x e l & C c c c c g h x A c m x : C V C c m l C c c c x l                                 ",
"                                x c c c h M 4 C c c C c c g l I V m h + C V c x c g M g c V x x                                 ",
"                                h x x C l C 1 c l c A m x g h K C c g ; A D c c l 4 c x c C x l                                 ",
"                                h x x C c C > C x x C M h l h H c M c ; I K l c x 6 M x c C M h                                 ",
"                                l h c h c H : C h V x c 6 l x V M c C 1 J C c M c x M g M x c 6                                 "
};
