/* XPM */
static char *_02ba75325664e40c57b10989952ec8aNDcUf08AgD6qMafR[] = {
/* columns rows colors chars-per-pixel */
"64 64 161 2 ",
"   c None",
".  c #171817",
"X  c #1A1817",
"o  c #1B1B1B",
"O  c #29231F",
"+  c #3C2E1B",
"@  c #3F301C",
"#  c #242321",
"$  c #282725",
"%  c #262926",
"&  c #2A2926",
"*  c #2D2B2A",
"=  c #322C23",
"-  c #312E2C",
";  c #3D3120",
":  c #34312D",
">  c #39332C",
",  c #353331",
"<  c #3A3632",
"1  c #3B3935",
"2  c #3F3E3A",
"3  c #402F1C",
"4  c #44341E",
"5  c #49361F",
"6  c #4B391F",
"7  c #463720",
"8  c #4B3721",
"9  c #473820",
"0  c #4D3A22",
"q  c #423729",
"w  c #4D3F2F",
"e  c #523E24",
"r  c #593E24",
"t  c #433A33",
"y  c #554126",
"u  c #5A4427",
"i  c #554228",
"p  c #5B4629",
"a  c #5E492A",
"s  c #474033",
"d  c #4F4431",
"f  c #594A33",
"g  c #61472A",
"h  c #644C2C",
"j  c #694E2E",
"k  c #67502F",
"l  c #6B512E",
"z  c #71522F",
"x  c #654E31",
"c  c #684F30",
"v  c #665132",
"b  c #6D5431",
"n  c #655139",
"m  c #6A5538",
"M  c #725632",
"N  c #7A5530",
"B  c #755934",
"V  c #7B5C36",
"C  c #725638",
"Z  c #765C38",
"A  c #7B5E38",
"S  c #7D6036",
"D  c #7E613A",
"F  c #414441",
"G  c #4A4743",
"H  c #494944",
"J  c #525355",
"K  c #805F38",
"L  c #816137",
"P  c #83643B",
"I  c #89663B",
"U  c #86683D",
"Y  c #8F6C3E",
"T  c #8A6A3E",
"R  c #936C3D",
"E  c #906C3E",
"W  c #936D3E",
"Q  c #916E3E",
"!  c #94703F",
"~  c #856940",
"^  c #896940",
"/  c #896B40",
"(  c #8B6B40",
")  c #8A6A41",
"_  c #8B6B41",
"`  c #8A6B41",
"'  c #886A42",
"]  c #886B42",
"[  c #8B6D43",
"{  c #8C6D40",
"}  c #8E6D40",
"|  c #8C6D42",
" . c #8D6F44",
".. c #8F6F44",
"X. c #8C6D41",
"o. c #916E40",
"O. c #916E41",
"+. c #906D42",
"@. c #936F42",
"#. c #926E40",
"$. c #8F7042",
"%. c #8E7142",
"&. c #8E7143",
"*. c #937141",
"=. c #927243",
"-. c #967141",
";. c #967543",
":. c #907145",
">. c #937144",
",. c #907244",
"<. c #977545",
"1. c #977644",
"2. c #967647",
"3. c #947243",
"4. c #997543",
"5. c #997544",
"6. c #9C7646",
"7. c #9A7544",
"8. c #997846",
"9. c #9A7847",
"0. c #9D7945",
"q. c #9E7A45",
"w. c #9C7B47",
"e. c #9D7C47",
"r. c #9C7945",
"t. c #927749",
"y. c #977648",
"u. c #937648",
"i. c #94784A",
"p. c #997949",
"a. c #9B7848",
"s. c #9B7B49",
"d. c #9C7A48",
"f. c #9F7B48",
"g. c #9C7C49",
"h. c #9A7B4E",
"j. c #997D4E",
"k. c #9C7B49",
"l. c #A07B47",
"z. c #A17C48",
"x. c #A27D48",
"c. c #A07D4A",
"v. c #A07E4B",
"b. c #A27E4B",
"n. c #A57D49",
"m. c #A47F4A",
"M. c #A17E4C",
"N. c #A17E4B",
"B. c #9F834E",
"V. c #9E814E",
"C. c #A0804D",
"Z. c #A3834D",
"A. c #A7834D",
"S. c #A4824E",
"D. c #A5844E",
"F. c #A7844F",
"G. c #AE854F",
"H. c #A78752",
"J. c #A58750",
"K. c #B19459",
"L. c #B59459",
/* pixels */
"                                P 1.m.G.m.q.4.q.5.6.p.d.x.x.M.S.S.f.C.S.F.S.x.-.5.p.e.f.L.K.V.b                                 ",
"                                x.h P >.Y Y A A A A A A B V A V B D A P U I U P V V A ~ h.j.j a                                 ",
"                                p.T l I q.=.} A Y I I P U %.V A U T T P U T T P [ } ] U P h P h                                 ",
"                                H. .%.j S ;.=.U B B P V V B P P V I A P P U U P D ] ] D h P V a                                 ",
"                                C.] ] T j D 8.1.T S L B M M B V V A A P ] U B V T ] U b } B M j                                 ",
"                                1.A [ >.P a l b b b b j h l l b b j j j l p h h j M V U l l M y                                 ",
"                                8.A y. .] l                 B M b e                 p.B B D A y                                 ",
"                                E P U U D j                 I P D h                 Y A B T V u                                 ",
"                                d.U B P P h                 I I D k                 o.A V A A a                                 ",
"                                o.%.V B B c                 E Y U j                 T v B Y A u                                 ",
"                                o.B V B D j                 E U U v                 T b B I A p                                 ",
"                                o.b b U t.Z                 L B A a                 >.b L I V a                                 ",
"                                : , * n U C } 4.-.4.5.8.8.e.f.f.q.q.5.q.q.l.l.x.H.8.=.v V P V a                                 ",
"                                < - , , b x b A A V V A A L V B V V B V P L I I U D } l V U B j                                 ",
"                                f & * 1 X = b D D P P P A I V P P B D V L V B V V B ] b B } V p                                 ",
"                                ] # $ 2 # 1 j j M M b l M M b j g V M j z z N h M h } B P V A j                                 ",
"                                U $ & G # :                 A b a y                 5.V P A B a                                 ",
"                                f & & > O >                 U P b h                 1.V V U M y                                 ",
"                                < 1 * , b h                 o.D B a                 -.A I T A y                                 ",
"                                & * * m V b                 -.U A j                 5.A A T A y                                 ",
"                                %.A b S T v                 } A A h                 V.A P P P a                                 ",
"                                p.] A L } b                 B j j e                 M.Z P U I h                                 ",
"                                d.T B S >.C p.M.x.q.0.0.-.E ! E T -.4.-.;.! E @.5.=.} A P T P j                                 ",
"                                o.T B S y.B U >.} T I I I I I I T U U P I P P K P P 1.b P T I h                                 ",
"                                5.T B I 1.B I Y T T I I T I } U P D D V Z V A A B V } Z A P P h                                 ",
"                                o.} V P T b V L V A L V V D V D V V D M B M B V A B } B B T A p                                 ",
"                                o.V A V U h B B B M b M b Z B B V Z D V V A A B A V U C V P A p                                 ",
"                                z.K V [ i.B g h j j h h h l k v b B v M M M z l l h I b L I V g                                 ",
"                                7.U B U } C h h l l b l l a S M l y a l b l b l l a T v V P V a                                 ",
"                                x.T D A [ C j V V D S S V l o.I P j l V D V V V V j I j V U B j                                 ",
"                                1.T D D P D v D D S V V B b =.Y P j Z I I L A V b > F H - * s u                                 ",
"                                M.P P D V A C D [ U D U V M 1.U P j A U Y T Y B w H 4 $ % J * h                                 ",
"                                x.U U B A Z l P I V A V V l T [ A h M P P P V l q ; h $ . # 1 p                                 ",
"                                x.U P D B b a h j h l j a y B b l e a h j l j p e 6 b > o # t 0                                 ",
"                                } U P P U j E I Y T E Y T o.o.=.Y I T T =.;.I I I T V y y a h e                                 ",
"                                3.V V A V j D V B B A A A P P P A V V V B V B P S B [ l j B b e                                 ",
"                                &.U M V P h b V z D A P S U S B A V S B V B V D Z Z >.M B Z B y                                 ",
"                                [ D M B P h v b b l M B B D V M M l B l b b l b M b t.b M Z Z y                                 ",
"                                [ V b B D h l B M M b M M M M l l l B M B M B M M l ~ v v B M u                                 ",
"                                A B b B M p y u y a p g a u u a a a p p a a p u e r A b j B l e                                 ",
"                                U M h b b e p u y 4 4 4 4 4 4 4 4 4 4 4 4 4 b p h 4 A v j l l e                                 ",
"                                V A j h j u l h h 0 4 8 8 8 8 8 7 8 4 4 4 4 P j l e B p h V j 8                                 ",
"                                A h j j b i l h j 0 5 y p h a p p a p y y y T b M e B a h B j 8                                 ",
"                                A a p b D h j h j u 4 p v b l b M B M M M B P b M e D a l M j 8                                 ",
"                                : , * f b h j j h y @ y h v h b M b b B M l A b j e A p h l j 0                                 ",
"                                < - , , a i y y y 4                         l u e 4 B p j M h y                                 ",
"                                d & * 1 X = B D D D D D V I V P D B A V L B B V V B B a h Z h 8                                 ",
"                                B # $ 2 # 1 h v M M b b B B b j h Z M j M z B j M j B h v h j y                                 ",
"                                b $ & G # : y l b l b v j j a j j h h j j j h j j b D h l j h 8                                 ",
"                                w & & > O : a j l h j h a p h j j h v v b Z h h h h V h h b a 4                                 ",
"                                < 1 * , p 0 h h h h M b l v j b j h a a j k h h h h V j l b j 4                                 ",
"                                & * * f h u u e e e e e e 8 e e e 0 e y y u y i y 8 A j h b j 4                                 ",
"                                B h y h b y 8 p e a u p e e l e e 4 e p u p p p y e D h j l j 8                                 ",
"                                D b h h B p e a a a h h h y V h h 8 p a h h h h h y D a j b l 0                                 ",
"                                D b a h B p p v l l j l h e V h h 0 y h h h h h h e B h j b k e                                 ",
"                                M b a h Z a p B b l l j j y M h h y p j l j j h h y Z i k b l 8                                 ",
"                                B v a j Z a p v v v j j j y M h a y y p p a a h u e b a h j j 8                                 ",
"                                M j h l B e 5 e e e e e 0 8 a 0 y 4 8 8 8 8 8 e e 4 M a p x a 8                                 ",
"                                M l h k a 4 l j v j b b b b A b v b B b v v b v j b u p a u p 0                                 ",
"                                A b b h 8 h a p i a x v v v x x a p y y i a p j h u h 8 j u y e                                 ",
"                                V j p 4 j p p p p p B v a h y p v p p y p p a h h e u j 8 p e 8                                 ",
"                                B u 4 y a a l h h a v j j h a h v h p a h h j l a y y a h 8 p 8                                 ",
"                                b + y e y p p a p h h h a p p y u u h a a h a h p y u u p a 9 7                                 ",
"                                0 8 8 e e e e 0 8 8 8 4 4 5 4 8 8 8 r e 8 4 5 4 4 @ @ 8 4 9 8 3                                 "
};
