/* XPM */
static char *a63453a5f920405dea140ddb1ac06cd04cOfYfXJ7Td8GuX5[] = {
/* columns rows colors chars-per-pixel */
"64 64 204 2 ",
"   c None",
".  c #331E17",
"X  c #2D231B",
"o  c #35251C",
"O  c #3B2D23",
"+  c #223129",
"@  c #35332A",
"#  c #4C3B32",
"$  c #593E32",
"%  c #453528",
"&  c #633B32",
"*  c #7F3F33",
"=  c #6E3B2E",
"-  c #1B493E",
";  c #2A4235",
":  c #4B4033",
">  c #594537",
",  c #56473A",
"<  c #654A3B",
"1  c #73503F",
"2  c #365F50",
"3  c #2D6955",
"4  c #2F6C59",
"5  c #296754",
"6  c #326E59",
"7  c #3E6956",
"8  c #2F705C",
"9  c #3E654B",
"0  c #377B66",
"q  c #397E68",
"w  c #397B65",
"e  c #454E40",
"r  c #5D5343",
"t  c #6B5145",
"y  c #635946",
"u  c #735343",
"i  c #795A49",
"p  c #715950",
"a  c #52664F",
"s  c #5D6654",
"d  c #4A7A5D",
"f  c #57755F",
"g  c #436A50",
"h  c #63634E",
"j  c #78634D",
"k  c #656957",
"l  c #766854",
"z  c #6E775F",
"x  c #71755D",
"c  c #7B725C",
"v  c #777057",
"b  c #567C65",
"n  c #6A7A64",
"m  c #7D7761",
"M  c #727B62",
"N  c #7D7B62",
"B  c #777762",
"V  c #863A2B",
"C  c #824336",
"Z  c #8C5C4C",
"A  c #895143",
"S  c #905445",
"D  c #866E57",
"F  c #8C6A54",
"G  c #866554",
"H  c #986756",
"J  c #82715F",
"K  c #A86C58",
"L  c #A3705C",
"P  c #897B6A",
"I  c #8B7763",
"U  c #937864",
"Y  c #A47C65",
"T  c #B57865",
"R  c #37836A",
"E  c #3B826B",
"W  c #39886C",
"Q  c #3D8D75",
"!  c #3D9374",
"~  c #3D947A",
"^  c #498569",
"/  c #5E846A",
"(  c #55896A",
")  c #578667",
"_  c #438C73",
"`  c #488F79",
"'  c #548E75",
"]  c #548F7B",
"[  c #429474",
"{  c #43947C",
"}  c #4B967C",
"|  c #449B7D",
" . c #4C9A7D",
".. c #489477",
"X. c #52957D",
"o. c #5D937B",
"O. c #529C7D",
"+. c #5D9A7C",
"@. c #589475",
"#. c #62856A",
"$. c #68866B",
"%. c #75846D",
"&. c #7C856A",
"*. c #698D75",
"=. c #628873",
"-. c #718F75",
";. c #65987E",
":. c #68967C",
">. c #76977A",
",. c #44A17E",
"<. c #4EA17F",
"1. c #8F8B6F",
"2. c #9C8773",
"3. c #839179",
"4. c #BA907B",
"5. c #AD8976",
"6. c #C9866B",
"7. c #3F9B80",
"8. c #469781",
"9. c #4A9781",
"0. c #459C82",
"q. c #4B9C83",
"w. c #4B9F89",
"e. c #5E9681",
"r. c #529D84",
"t. c #5B9B83",
"y. c #529A85",
"u. c #649C83",
"i. c #45A285",
"p. c #4CA285",
"a. c #47AA87",
"s. c #4DAA86",
"d. c #4CA48A",
"f. c #4DAB8C",
"g. c #46A68A",
"h. c #52A386",
"j. c #51AA86",
"k. c #53A58A",
"l. c #5AA58B",
"z. c #53AA8D",
"x. c #5AAA8E",
"c. c #4CB38E",
"v. c #52B38D",
"b. c #5BB18F",
"n. c #4DAC91",
"m. c #54AD92",
"M. c #5CAD92",
"N. c #4DB492",
"B. c #4EBC99",
"V. c #48B894",
"C. c #54B294",
"Z. c #5BB295",
"A. c #54BA95",
"S. c #5AB996",
"D. c #56B599",
"F. c #5BB599",
"G. c #54BB9A",
"H. c #5BBA9B",
"J. c #65A88A",
"K. c #62AD93",
"L. c #69AB91",
"P. c #63B296",
"I. c #63B59A",
"U. c #68B59A",
"Y. c #62BB9C",
"T. c #6AB99E",
"R. c #68B397",
"E. c #70B69D",
"W. c #5DBCA1",
"Q. c #64BDA1",
"!. c #6CBBA2",
"~. c #66B6A1",
"^. c #71BEA2",
"/. c #54C29C",
"(. c #5BC19D",
"). c #52C99F",
"_. c #64C19C",
"`. c #57C3A1",
"'. c #5BC4A2",
"]. c #54CAA2",
"[. c #5BCBA6",
"{. c #5ACDA9",
"}. c #5BD4AC",
"|. c #54D3AA",
" X c #63C2A3",
".X c #6AC2A5",
"XX c #64CAA5",
"oX c #6CC6A9",
"OX c #63CAA9",
"+X c #6BCAAC",
"@X c #66C6A7",
"#X c #71C7AA",
"$X c #6AD0AD",
"%X c #67D1AD",
"&X c #74D0AF",
"*X c #70CFB1",
"=X c #63D6B4",
"-X c #6CD9B3",
";X c #73D6B4",
":X c #75E8CB",
">X c #869E80",
",X c #80A28A",
"<X c #8BA995",
"1X c #B1A99D",
/* pixels */
"                                g.f.z.Z.x.x.j.z.p.k.Q.M.f.m.l.M.x.M.z.h.d.d.{ q.m.q.q.d.h.q.k.q.                                ",
"                                C.m.F.F.Z.Z.P.z.S.Y..XM.m.M.I.x.I.M.I.M.k.f.w.k.k.q.q.h.z.d.d.q.                                ",
"                                g.m.C.d.F.#XY.S.z.Z.z.Z.Y.Z.M.x.l.M.l.r.h.q.k.q.h.Z.Z.M. .q.q. .                                ",
"                                D.m.q.@X`.[.[.].A.z.Z.Z.Z.M.K.K.x.M.l.m.q.z.8.~.C.j.j.H.m.} q.r.                                ",
"                                ( / Y.].).]././.'.h.k.z.r.q.l.l.k.k.h.h.r.q.h.H.z.z.i.s.C.} }  .                                ",
"                                ( ) G.}.A.f.n.z.(.p.q.x.Z.H.z.(.C.Z.i.Y.k.r.F.S.p.f.r._ C.h.{ }                                 ",
"                                ( ( H.].| E ^ ..XXj.l. X                Y...l.(.R q w q D.[  .q.                                ",
"                                ^ d s.G.A.6 3 (.XX_.x.q.                r.r.H.p.0.3 6 s.z.[ q.q.                                ",
"                                i.0.| | G./.'.(.C.C.Y.                    .Xz.h.k.].'.C.[ q.p.p.                                ",
"                                f.f.i.q.| | ! | H.z.H..X                @Xp.p.Z.[ /.v.h.} h.p.d.                                ",
"                                7.g.q.k.A.p.{ d.v.F.C.Z.Q.            +Xz.z.F.s.z.%XM.l.k.p.h.{                                 ",
"                                i.F.r.k.D.s.p.}   f.H.Z.Y.oX        +Xz.l.Z.v.  -X-Xx.q.k.d.p.r.                                ",
"                                n.C.P.C.D.G.        A.Y.M.Y.Q.F.F.Y.h.z.z.v.         Xd.0.z.d.l.                                ",
"                                f.p.Z.z.C.f.          A.F.z.z.p.f.z.C.m.a.          A.m.m.H.l.k.                                ",
"                                m.m.m.Z.D.C.            C.M.s.    p.z.s.            Z.m.m.M.k.q.                                ",
"                                m.Q.Z.m.m.C.            oXp.        Y.p.            @XM.k.M.l.M.                                ",
"                                m.m.Z.m.z.C.            Y.Z.        .Xh.             XZ.Z.M.M.l.                                ",
"                                C.C.p.z.F.z.            Y.k.m.    oXZ.S.            I.M.m.M.M.O.                                ",
"                                i.f.f.q.m.z.          +Xz.k.q.Z.m.Z.Y.Z.+X          U.M.m.M.k._                                 ",
"                                7.C.m.C.m.m.        *Xp.C.Y.S.<.[ A.z.Y.Z.*X        M.M.m.x.} X.                                ",
"                                ~ d.z.F.d.k.C.}   W.f.C.C.v.        '.Z.M.#X&X  } m.z.M.l.M.h._                                 ",
"                                0.k.m.F.| q.{ d.'.f.p.z./.            -X.XP.Y. Xp.q.q.} z.k.q._                                 ",
"                                d.k.z.l.Z.D.H.'.A.C.C.A.                S.I.S.z.F.C.Y.M.q.M.l.}                                 ",
"                                d.k.p.!.D.f.N./.A.z.j.                    Z.Z.W.'.c.v.XXY.k.M.|                                 ",
"                                d.d.m.Y.a.C.C.c.C.|  .q.                K.Y..X X(.j.j.S. XZ.x.p.                                ",
"                                d.0.D.N.a.N.C.s.H. .q.Z.                .XY.Y.N.i.h. .q.@XC.p.p.                                ",
"                                d.q.m.v.[ R R [ H.q.h.M.Z.H.Y.F.Q.Y.Y.Y.Y. .W.-.u A G F *.N.h. .                                ",
"                                w.w.C.z.s.6 4 C.H.z.} r.k.M.x.h.x.z.z.l.d.m.4.J < t u U D > h.q.                                ",
"                                d.0.C.s.D.H.H.Z.Z.h.M.!.!.!.U.!.H.W..X!.W.i = , ; : & ; i H p d.                                ",
"                                0.0.C.p.z.Z.H.S.Z.x.x.Z.p.M.k.Z.Z.D.i.l.,X* = + h v h =.7 t t f                                 ",
"                                ) / m.k.C.Z.S.Y.Y.x.x.K.Z.Z.S.S.S.Y.Y.C.Y 4.s %.v T j #.;.g r ,                                 ",
"                                ) f k.z.m.Z.M.Z.P.T.^.^.m.D.Z.Z.M.Y.Y.D.V 6.j 1.D 1X<XU 2.N e ,                                 ",
"                                ^ ( C.f.C.C.Z.Z.F.Y.^.U.x.K.K.S.M.M.M.z.Z L j h j 3.3.C % # L H                                 ",
"                                d g p.f.D.m.z.C.Z.Z.x.M.P.M.K.K.l.h.P.k.i F $ y , &.S O #.> S <                                 ",
"                                0.p.C.C.f.C.C.m.S.Z.M.P.^.I.U.E.^.Z.M.S.k P i &.>XI u y M Z & @                                 ",
"                                p.| C.C.C.'.[.[.M.P.h.h.x.r.O.z. .p. .b.a D 2.k m G $ I T 6.K -                                 ",
"                                f.k.F.D.c.N.G.[.Y.h.X.k.l.l.l.y.r.} X.X.%., P 5.5.i 1 & Y L X '                                 ",
"                                p.p.C.G.| g.n.| %Xx.t.M.K.J.] ` t.t.y.l.%.%.2 # U H G Z O X k X.                                ",
"                                i.d.m./.W R q E @X .l.T.P.x.P. .K.K.l. .-.*.Y.s O . . o r b u.l.                                ",
"                                i.d.d.N.N.6 4 m.Z.r.l.U.!.M.M.x. .h.P.j.+.#.m.$.l < u l &.#.M.l.                                ",
"                                0.C.d.,.f.'.G.S. .y.M.M.I.l.h.x.l.x.Z.<.X.*.y.=.c k c c n r.x.l.                                ",
"                                0.f.0.{ C.z.Y.h.k.x.M.Z.K.K.M.x.l.x.M.h.l.*.h.b x z c m / P.M.l.                                ",
"                                g.i.p.{ F.z.H.S.r.M.q.M.K.K.x..Xk.M.M.k.h.:.h.' M / m B o.M.M.r.                                ",
"                                g.0.p.q.F.g.Z.z.k.l.l.Y.K.M.K.l.k.Z.l.w.h.:.M.o.M +.N x y.m.z.r.                                ",
"                                f.~ f.q.D.A.F.p.q.Z.l.R.P.K.K.Z.M.Z.l.l.l.:.M.o.M J.&.M K.M.M.{                                 ",
"                                0.q.z.k.F.m.m. .q.M.l.U.K.P.T.Q.M.M.l.r.l.;.Z.e.n  X>.$.M.F.h.q.                                ",
"                                i.0.q.q.H.D.Z.p.h.M.M.^.P.x.U.Z.M.M.l.r.x.u.M.e.n OXJ.#.M.x.p.p.                                ",
"                                ~ g.0.p.A.C.F.s.k.l.k.U.P.R.K.Y.M.Z.C.k.M.t.f.u.u.W.L.#.l.z.k.h.                                ",
"                                n.m.z.k.C.f.m.z.k.l.l.M.K.P.P.T.Z.m.m.d.Z.x.m.o.J.'.T.@.x.z.z.r.                                ",
"                                0.0.g.q.f.| C.p.r.M.l.P.U.U.M.K.l.z.F.m.m.M.C.e.!.OX!.O.q.d.s.h.                                ",
"                                d.C.C.q.n.| f.p.q.l.K.U.I.I.P.M.M.C.C.f.l.x.H.e..XG.Y.O.d.f.d. .                                ",
"                                f.C.f.Q i.g.f.p.k.C.F.z.M.M.Y.M.Z.C.f.n.M.R.Y.} D.G. Xz.p.n.d.p.                                ",
"                                f.F.| Q g.p.m.z.d.H.k.f.Z.M.D.z.C.F.r.Z.Z.k.Z.m.D.N. X| 0.d.m.8.                                ",
"                                d.m.0.~ D.z.D.,. .x.d.f.l.m.d.p.f.f.p.0.m.M.M.m.D.N.H.,.d.d.d.{                                 ",
"                                m.Z.C.i.A.C.Y.H.M.U.F.m.m.Z.m.m.D.D.f.f.C.F.m.z.[.[.'.A.q.z.k.d.                                ",
"                                n.q.! D.`.H.XX;X*Xl.Z.k.k.f.z.f.F.m.m.d.g.f.n.].].).).(.F.k.Z.q.                                ",
"                                @.( m.N.V.D.z.%X+XQ.F.W.W.W.'.@XW.Q.Q.!.!.OX=X}.).G./.B.A.k.x.M.                                ",
"                                +.d s.V.0.0.{ | `.N.f.Z.C.H.H.A.D.C.C.Y.H.`.G.].N.A.G.f.D.d.r.k.                                ",
"                                ' ( f.].R 0 6 q (.H.m.M.D.D.F.H.i. XC.G.G.G.B.}.! R q | C.[ q.q.                                ",
"                                ^ 9 { f.[.5 3 B.G.p.| | i.! ~ ! ..{ p.f.a.N.G.}.{.0 8 B.i.! | }                                 ",
"                                w.{ q...}.|.}.].a.q.k.8.d.{ ~ k.q.r.h.{ { { q.'.:X=X{.N.! { ~ 0.                                ",
"                                d.m.m.q.[ i.a.i.d.m.m.m.m.Z.D.m.Q.8.F.d.{ 8.F.I.+Xn.i.p.8.d.| Q                                 ",
"                                g.f.s.z.d.0.h.k.C.@XH.f.m.m.D.m.m.Z.k.{ w.M.~.k.k.k.k.z.i.f.0.E                                 ",
"                                0.0.0.q.q.p.d.i.p.d.q.q.} 0.| 0.0.8.0.q.M.9.r.q.q.0.d.d.{ Q } `                                 "
};
