/* XPM */
static char *b07c77aef7f24df491d4ebcbd4e6396f29fk0Myxws81gvtA[] = {
/* columns rows colors chars-per-pixel */
"64 64 189 2 ",
"   c None",
".  c #01241F",
"X  c #042622",
"o  c #062C26",
"O  c #052F2B",
"+  c #06302B",
"@  c #0C352E",
"#  c #10312B",
"$  c #073630",
"%  c #0B3632",
"&  c #063B34",
"*  c #0D3D35",
"=  c #0A3F3A",
"-  c #133733",
";  c #123934",
":  c #113F3A",
">  c #0C4235",
",  c #034039",
"<  c #0C423C",
"1  c #0D4B3C",
"2  c #14433D",
"3  c #1B433D",
"4  c #134A3D",
"5  c #0A4740",
"6  c #0C4A43",
"7  c #174540",
"8  c #1B4541",
"9  c #144D44",
"0  c #194C45",
"q  c #154F48",
"w  c #1D4F48",
"e  c #0F5545",
"r  c #0D524A",
"t  c #155345",
"y  c #1B5146",
"u  c #15534B",
"i  c #1B534B",
"p  c #135A4C",
"a  c #1B5A4D",
"s  c #0F5C55",
"d  c #155651",
"f  c #1E5651",
"g  c #135D52",
"h  c #1B5B54",
"j  c #165F58",
"k  c #1E5E58",
"l  c #204742",
"z  c #224A46",
"x  c #224E49",
"c  c #23534D",
"v  c #29544E",
"b  c #23584F",
"n  c #245651",
"m  c #2A5652",
"M  c #245C54",
"N  c #2A5C55",
"B  c #245F58",
"V  c #2A5F59",
"C  c #325F5A",
"Z  c #166351",
"A  c #1C6255",
"S  c #1D6856",
"D  c #1C655C",
"F  c #1C685D",
"G  c #20604F",
"H  c #246256",
"J  c #2A6356",
"K  c #216957",
"L  c #24645B",
"P  c #2B635C",
"I  c #236B5C",
"U  c #2A695E",
"Y  c #31645E",
"T  c #30695E",
"R  c #26705D",
"E  c #1D6B62",
"W  c #236761",
"Q  c #2B6761",
"!  c #236B63",
"~  c #2D6B63",
"^  c #2F6F6B",
"/  c #326661",
"(  c #326B64",
")  c #396D65",
"_  c #346E68",
"`  c #396F6A",
"'  c #267165",
"]  c #2C7265",
"[  c #23746B",
"{  c #2C746B",
"}  c #2E7B6C",
"|  c #337366",
" . c #3B7366",
".. c #34736B",
"X. c #3A746D",
"o. c #337B6D",
"O. c #3B7A6C",
"+. c #2C7B72",
"@. c #357770",
"#. c #3A7670",
"$. c #347C73",
"%. c #3B7B74",
"&. c #3B7E78",
"*. c #416F6A",
"=. c #407A6D",
"-. c #437470",
";. c #427B74",
":. c #437E79",
">. c #36816F",
",. c #2C8177",
"<. c #2D8379",
"1. c #368176",
"2. c #3C8475",
"3. c #36827A",
"4. c #3B847B",
"5. c #3C897E",
"6. c #438475",
"7. c #4A8377",
"8. c #43847C",
"9. c #4B847B",
"0. c #438B7C",
"q. c #4D8A7D",
"w. c #538C7E",
"e. c #43907E",
"r. c #378980",
"t. c #3D8B82",
"y. c #3F8F88",
"u. c #458781",
"i. c #438C84",
"p. c #4B8C84",
"a. c #4A8F88",
"s. c #518F81",
"d. c #439186",
"f. c #4B9385",
"g. c #45938B",
"h. c #4B948B",
"j. c #47998F",
"k. c #4C9A8D",
"l. c #549285",
"z. c #52948C",
"x. c #5A9589",
"c. c #529A8C",
"v. c #599A8E",
"b. c #479790",
"n. c #4B9690",
"m. c #4D9B92",
"M. c #4D9D93",
"N. c #4C9C93",
"B. c #519790",
"V. c #519A91",
"C. c #539E90",
"Z. c #549C93",
"A. c #5C9F97",
"S. c #509F99",
"D. c #589D98",
"F. c #4FA097",
"G. c #4FA198",
"H. c #55A392",
"J. c #52A196",
"K. c #57A494",
"L. c #54A296",
"P. c #5BA394",
"I. c #55A399",
"U. c #54A39B",
"Y. c #5BA599",
"T. c #58A69E",
"R. c #5AA59B",
"E. c #5BA99B",
"W. c #5BA89F",
"Q. c #5DA99C",
"!. c #64A699",
"~. c #64AC9B",
"^. c #62AB9C",
"/. c #57A8A0",
"(. c #5FABA0",
"). c #5DACA3",
"_. c #5FB1A8",
"`. c #62AEA1",
"'. c #65B2A4",
"]. c #69B4A5",
"[. c #66B1AA",
"{. c #63B3AA",
"}. c #68B7AE",
"|. c #68B8AF",
" X c #73B3A5",
".X c #68B8B1",
"XX c #6ABBB3",
"oX c #71BBB0",
"OX c #72BEB1",
/* pixels */
"                                  [ I.J.(.{ F     r.J.[.T.j.<.    3.D.Y.~.0.f.2.# W I.V.W.3.,.                                  ",
"                                [ W.$.5.i.{ $.g [ }.y.g.4.3.y.[ $.oX].e.I e p } 2.h.{ 1.i.3.m.r                                 ",
"                                i.i.5.t.5.$.3.5.{.y.j.g.t.%.5.E !.c.' H P / N P >.0.2.h.g.g.g.D                                 ",
"                                k.3.4.3.2.$.i..Xg.y.m.1.g.4.3.c.O.1 V N Y :.B #./ ] c.| i.i.3.A                                 ",
"                                c.2.c.2.~ $.[.g.y.y.j.4.i.{ c.K.1 V V #.Q i.3.f.&.P %.G O.0.6.2.                                ",
"                                I K I >.] h.%.g.t.g.S.i.8.Z.c.Z _ X.%.a.3.i.t.m.h...b 9 A A I o.                                ",
"                                2 b b M | 2.k.0.2.i.j.i.].C.p   k k.t.i.$.d.t.N.h.4.#.w / ) 9                                   ",
"                                  & M -.m U } K k.H.E.Y.1.a       [ ! 2.t.t.N.3.i.j.1.%.%.L                                     ",
"                                  D V.#...M P M 2.0.} ~ $ c h     ,.).1.j.g.g.t.m.t.t.5.p.4.p                                   ",
"                                u S.$.4.3.%._ _ p.I h o M U t.s A XXy.N.t.N.g.4.U.j.N.4.$.N.t.,                                 ",
"                                D.~ 3.g.S.3.%.#.Y.I @ b | W i.F I.G.g.h.i.g.g.t.J.g.j.g.4.U.U.5                                 ",
"                                k.@.t.4.N.3...Y.1.9 | ~ ~ @.i.! U.U.N.4.i.y.y.i.U.g.N.h.g.U.J.h                                 ",
"                                L.d.g.h.i.$.!.k.p U i.@.$.$.4.D T.L.L.N.i.t.g.$.N.g.j.3.4.F.h.q                                 ",
"                                I.3.g.1.f.`.2.D ( | S.y.t.+.3.[ ).M.t.L.4.g.N.! ).1.g.{ N.m.h.u                                 ",
"                                (.4.4.Z.'.} u f p.3.g.g.1.@.4.[ _.G.m.N.5.g.d.L .Xi.M.$.I.S.Y.E.                                ",
"                                L.3.z.P.A U P u V.t.U.g.$.~ 5.[ {.U.d.g.3.t.j.L /.S.m.$.Y.'.k.I                                 ",
"                                h.i.^.Z i ~ ..j T.t.m.g.] ] g.+.W.g.5.t.g.t.N.+.(.N.i.P.Y.' L q                                 ",
"                                &.].S H ( ..4.E ).t.g.y.1.{ 3.[ `.m.g.5.F.g.U.1.Y.i.'.5.A U ( a                                 ",
"                                v.f.p P ..$.4.F {.d.t.d.j.} 4.A {.J.N.g.N.g.L.} z.'.1.~ P ..4.h                                 ",
"                                ^.I P | 4.4.i.g ).g.g.N.g.$.4.[ (.G.m.d.m.g.g.{ ].$.U P 8.i.i.h                                 ",
"                                0.L P ..3.@.$.+..Xg.m.N.t.i.{ { (.N.g.h.d.4.8.].5.L ) ~ N.N.j.~                                 ",
"                                o.M Q ..{ 3.] +.{.g.N.m.3.d.$.+.I.g.Q.OX`.^.0.} ] V | ~ U.g.~.Q.                                ",
"                                { n { 4.L 3.$.F U.$.g.M.$.d.$.[ h.`.L.] ~ } R p ) U 0.U a.'.k.g                                 ",
"                                ] L o.3.$.1.~ F {.g.j.m.4.i.1.j ~.H.I N N N H o.%...2.{ ].d.] f                                 ",
"                                #.i.$.5.4.i.3.! |.N.g.U.i.b.$.$.].I ( Q .._ N ] d.K.K.Q.2.g X.L                                 ",
"                                V.t.@.t.4.i.4.E |.N.m.U.j.g.| Y.} ~ X.$.3.8._ 0 %.{ I D ~  .8.]                                 ",
"                                W.i.$.i.d.g.4.F {.g.g.j.g.g.X.c.L P 0.4.i.j.%.h ;.P m 8 ) i.N.3.                                ",
"                                ).t.@.i.i.N.t.d ).g.g.g.i.i.U Z.U #.n.g.g.N.i.! f.X.P %.8.i.L.$.                                ",
"                                }.3.t.1.3.g.4.I T.y.N.j.t.i.X.0.L 8.m.g.i.N.g.! B.p.k.f.O.2.p.+.                                ",
"                                {.+.g.] 4.4.3.' d.m.m.M.i.A.z.K ( 4.j.3.4.j.m.g h.0. Xf.X.O.0.!                                 ",
"                                (.t.3.$.1.$.4.h r U.g.N.[.#.Q.A #.4.g.t.t.N.[ = 8.l.c.| O.2.O.i                                 ",
"                                (.t.5.1.i.! i.h   [ 3.XX4.&.Q.I #.h.g.t.i.[     9.0.6.0.0.0.h.0                                 ",
"                                Y.4.3.{ i.f.c.4.  +.I.h.%.v.4.~ #.n.g.5.6 g.E & 8.c 0.2.k.!.V i                                 ",
"                                k.4.| f.P.] ' 2.0.c.%.8.'.o.! _ 4.j.N.6 4.4.t.s p.m l v N 3 Y h                                 ",
"                                k.{ c.f.D b n i | i.f.f.$.u N ( %.g.E 5.t.3.i.d Z.| Y 8 C m %.j                                 ",
"                                0.p.f.A c V V 9 X.L L h B V n | $.E i.3.t.$.i.j Y.| U @.~ ] 2.'                                 ",
"                                9.!.A m c ~ #.k %.P ) m M ( L %.< g.5.4.i.2.4.A p.~ ~ k.~ 4.i.!                                 ",
"                                v.2.a N P &.&.! p.&.&.( ~ ~ L u ( 4.i.4.4.o.8.a Z.%.{ h.~ 2.t.j                                 ",
"                                Y.A c V L ..4.! h.u.8.~ ~ ~ %.r i.i.p.4.4.$.4.k &.$.$.3.h.3.h.W                                 ",
"                                f.H n U L #.4.F h.8.4.h | B ~ h 8.{ 4.$.4.%.i.h Z.p.@.&.i.3.i.~                                 ",
"                                | i P ~ L &.#.L k.4.$.B @.P ..2 z.....#.%.%.8.u D.p.@.&.p.$.p.L                                 ",
"                                K M P L ~ | ..! V...$.~ %.~ H h 7.~ B | 8._ u.L Y.8...&.p.8.p.h                                 ",
"                                M J M ~ | ~ ..F h...{ $.&.J B u 7.~ ~ U ~ &.B L :.#.:.X.8.{ &.L                                 ",
"                                ~ U M U ..~ | W z...$.U %.P L d l.....&.&.8...n v.p.q.O.| ( ..^                                 ",
"                                -.U ..~ ~ ..~ L a...%.B 8.U ~ h Z.8.@.%.4._ 7.x.| t 0 M U 7.q.q.                                ",
"                                #.~ ~ @.| | ( h p...&.u %...&.k Z.&.~ ..#...w.a y c z m y 4 u M                                 ",
"                                P #.B ..~ X.O.U p.@.$.a 8...8.A h.&.~ _ _ l.t 2 C V Y P m x c M                                 ",
"                                #.%.U 7.s.%.T M ( ( #.B ..~ ..h f.&.Q (  .O.9 7 #.X...%.P P V M                                 ",
"                                :.9.l.O.i 0 2 H ( i ..J | U ~ < 8.%...P l.9 N f p.4.#.p.| &...B                                 ",
"                                %.| a 0 x z x : P P J f _ B ~ = p.@...Y q.q Y h p.4.%.i...8.8.!                                 ",
"                                0 7 8 v m M n 2  ...i ( ..L ( u 7.4..._ 6.i ( ..z...8.i.@.8.p.L                                 ",
"                                z c x / M ( ~ n n P J J _ M | i p.#.P 9.~ b ) z.8...8.p.@.8.p.!                                 ",
"                                / n V U U ~ L _ Y w M | ..M P 9 7._ ( v.i N :.%...~ X.:.Q 8.8.L                                 ",
"                                J M ~ B ~ ~ B #.( m c i ( X. .2 ( ;.l.~ c -._ %.Q %.x.-.=.) | %                                 ",
"                                @ B ~ M ~ | U ~ ~ m N - 8 i ~ O.( X.i P *.( ..#.( 6.B i y i J  .                                ",
"                                  + i P Q | n ( ..~ ..w 3 X @     * 2 ) P X.#.P q.H x m x : 0 y                                 ",
"                                  * _ n P U U _ %...%.N w c @     3 / V ( X.( ( q.M c ) 2 m 8                                   ",
"                                : -.M B J ..~ _ #...%.P n M b X - X.i ~ X.#.V 7.( v N i .._ _ q                                 ",
"                                ) 0 T V ..( Q ~ X.X.| ( M L J < _ ~ ..M ` ( ) =.y v < X.#.%.%.h                                 ",
"                                X.i V V ~ L L U ~ ( X.~ M _ ~ 2 9.X.%.J ) 9. .> x % / ( (  .( a                                 ",
"                                7.M b V ..~ P U ~ ~ ..~ ~ ( P < ) M X.7.) 0 > z @ / ( ) V n J i                                 ",
"                                :.n M V ( ~ U B X...( M 0 ..~ 0 :.c w.y 2 3 z : C #...J P ( ( i                                 ",
"                                9 ~ P L ( J u   6 %...( _ X.h   B 7.J * z c 9   h X._ ( ( X.L                                   ",
"                                  6 q q M .       L u B h %       7.1 - 2 ;       u q 9 a O                                     "
};
