/* XPM */
static char * weapon_shooting_xpm[] = {
"64 64 457 2",
"  	c None",
". 	c #C25F10",
"+ 	c #AB510B",
"@ 	c #7D2D02",
"# 	c #D6600E",
"$ 	c #D6600D",
"% 	c #8D3903",
"& 	c #A64000",
"* 	c #E86D15",
"= 	c #E66F1D",
"- 	c #A24001",
"; 	c #882D00",
"> 	c #CA5605",
", 	c #EF7824",
"' 	c #ED7723",
") 	c #B84A02",
"! 	c #8E3600",
"~ 	c #D76316",
"{ 	c #F88430",
"] 	c #F7832F",
"^ 	c #D6600B",
"/ 	c #903801",
"( 	c #792803",
"_ 	c #A84101",
": 	c #E36E1D",
"< 	c #FEA767",
"[ 	c #FF9D55",
"} 	c #E97525",
"| 	c #AB4101",
"1 	c #983900",
"2 	c #D46214",
"3 	c #F59049",
"4 	c #FDBD96",
"5 	c #FDD1A5",
"6 	c #FB9F64",
"7 	c #CC5705",
"8 	c #8C3100",
"9 	c #732B00",
"0 	c #AB4301",
"a 	c #E67E42",
"b 	c #FDC09D",
"c 	c #FDC9AA",
"d 	c #FFE6D2",
"e 	c #FDD7B4",
"f 	c #E07836",
"g 	c #A73E01",
"h 	c #782900",
"i 	c #832F00",
"j 	c #C85506",
"k 	c #E49850",
"l 	c #FFEAD0",
"m 	c #FFF9F6",
"n 	c #FFEADE",
"o 	c #F8E4DA",
"p 	c #E4854C",
"q 	c #BD4C01",
"r 	c #802A02",
"s 	c #B64A03",
"t 	c #E67937",
"u 	c #EF9A64",
"v 	c #FEF3EC",
"w 	c #FFFFFF",
"x 	c #FFFAF8",
"y 	c #FEDFCA",
"z 	c #EA864E",
"A 	c #D66217",
"B 	c #AB4504",
"C 	c #A03D01",
"D 	c #D9620D",
"E 	c #FDA569",
"F 	c #FCC4A4",
"G 	c #FFFCFA",
"H 	c #FFEDE2",
"I 	c #F8AC77",
"J 	c #F7B77E",
"K 	c #DB691D",
"L 	c #A94101",
"M 	c #862C00",
"N 	c #963E03",
"O 	c #C85607",
"P 	c #F08338",
"Q 	c #FCDAC4",
"R 	c #FEE9DA",
"S 	c #FFFFFE",
"T 	c #FFFEFD",
"U 	c #FEE6CD",
"V 	c #FDD2A1",
"W 	c #E87E3C",
"X 	c #D05B08",
"Y 	c #9D3D01",
"Z 	c #B54802",
"` 	c #D8610C",
" .	c #FCAC7B",
"..	c #FAEADA",
"+.	c #FFEFE7",
"@.	c #D5CECD",
"#.	c #FEF8F4",
"$.	c #FDC19E",
"%.	c #F7924B",
"&.	c #DD6819",
"*.	c #B04603",
"=.	c #9F3F02",
"-.	c #DB620C",
";.	c #F17A25",
">.	c #FFCA96",
",.	c #FFE6D1",
"'.	c #FFF7F3",
").	c #D2CCCB",
"!.	c #FEF8F5",
"~.	c #FFD2B9",
"{.	c #FFBC91",
"].	c #F37C26",
"^.	c #DD640E",
"/.	c #C76513",
"(.	c #F97F26",
"_.	c #FF903B",
":.	c #FAA262",
"<.	c #FECEB3",
"[.	c #FFFBFA",
"}.	c #B5A8A4",
"|.	c #FFFAF7",
"1.	c #FEC9AA",
"2.	c #FAA76E",
"3.	c #FA7F27",
"4.	c #CC6A16",
"5.	c #C25E0E",
"6.	c #E76B12",
"7.	c #F9832E",
"8.	c #FEBC92",
"9.	c #FFCFB3",
"0.	c #FFFCFB",
"a.	c #F9F2F0",
"b.	c #A95118",
"c.	c #FFFBF8",
"d.	c #FFBF86",
"e.	c #F7822D",
"f.	c #E46911",
"g.	c #A44403",
"h.	c #BB4C05",
"i.	c #E06B1D",
"j.	c #FD9E5E",
"k.	c #FEC8A9",
"l.	c #FFFDFC",
"m.	c #F3E7E5",
"n.	c #8B4008",
"o.	c #FCEDDC",
"p.	c #FDB88C",
"q.	c #DE6510",
"r.	c #C15004",
"s.	c #9E3E01",
"t.	c #D45E09",
"u.	c #E87E3B",
"v.	c #FCCD9A",
"w.	c #FFF8EF",
"x.	c #D8CECB",
"y.	c #833C08",
"z.	c #FEF9F5",
"A.	c #F9E2D2",
"B.	c #F38B46",
"C.	c #CC5908",
"D.	c #9B3E02",
"E.	c #8D3000",
"F.	c #B84902",
"G.	c #DA7028",
"H.	c #F5C89C",
"I.	c #FAC8A9",
"J.	c #BEABA2",
"K.	c #682F06",
"L.	c #682F05",
"M.	c #BEB0AB",
"N.	c #FEDFCD",
"O.	c #FEAF7A",
"P.	c #E06812",
"Q.	c #B24D1A",
"R.	c #6A2702",
"S.	c #622C09",
"T.	c #9C4916",
"U.	c #EC8B4E",
"V.	c #997059",
"W.	c #883F09",
"X.	c #987B6E",
"Y.	c #F6AA7A",
"Z.	c #EC8443",
"`.	c #BC5208",
" +	c #A25120",
".+	c #6F3308",
"++	c #0F0C0B",
"@+	c #28211D",
"#+	c #221B16",
"$+	c #5B2C0F",
"%+	c #D87339",
"&+	c #622E09",
"*+	c #693007",
"=+	c #63310C",
"-+	c #E0924D",
";+	c #A14A0A",
">+	c #5C2B08",
",+	c #512708",
"'+	c #935021",
")+	c #351904",
"!+	c #141312",
"~+	c #252424",
"{+	c #1B1B1B",
"]+	c #221715",
"^+	c #7B2D09",
"/+	c #9D6137",
"(+	c #4B2F1E",
"_+	c #593C29",
":+	c #5B3B27",
"<+	c #4D2C17",
"[+	c #A35F36",
"}+	c #6A3612",
"|+	c #4D3424",
"1+	c #3F3127",
"2+	c #786152",
"3+	c #3A2B22",
"4+	c #141211",
"5+	c #1A1A1A",
"6+	c #1C1C1C",
"7+	c #161616",
"8+	c #56331A",
"9+	c #913301",
"0+	c #583F36",
"a+	c #36322F",
"b+	c #2F2F2F",
"c+	c #312E2D",
"d+	c #422F24",
"e+	c #4B3C33",
"f+	c #363433",
"g+	c #313131",
"h+	c #4D4D4D",
"i+	c #616060",
"j+	c #3C3B3A",
"k+	c #171717",
"l+	c #131313",
"m+	c #51391D",
"n+	c #945738",
"o+	c #3F3E3E",
"p+	c #2C2C2C",
"q+	c #393838",
"r+	c #3F3F3F",
"s+	c #393939",
"t+	c #383838",
"u+	c #6E6E6E",
"v+	c #4B4B4B",
"w+	c #1D1D1D",
"x+	c #181818",
"y+	c #0E0E0E",
"z+	c #5A3D20",
"A+	c #897164",
"B+	c #2F2D2C",
"C+	c #2D2D2D",
"D+	c #303030",
"E+	c #343434",
"F+	c #3E3E3E",
"G+	c #6F6F6F",
"H+	c #111111",
"I+	c #5E4022",
"J+	c #5E4A3E",
"K+	c #3B3A39",
"L+	c #434343",
"M+	c #525252",
"N+	c #4C4C4C",
"O+	c #262626",
"P+	c #3C3C3C",
"Q+	c #474747",
"R+	c #4A4A4A",
"S+	c #484848",
"T+	c #79502D",
"U+	c #5B4131",
"V+	c #2E302E",
"W+	c #1E221D",
"X+	c #222522",
"Y+	c #0E0F0F",
"Z+	c #454545",
"`+	c #4F4F4F",
" @	c #282828",
".@	c #292929",
"+@	c #5E3F2B",
"@@	c #1D211C",
"#@	c #0B1707",
"$@	c #282C27",
"%@	c #1D221C",
"&@	c #2E261B",
"*@	c #414141",
"=@	c #151515",
"-@	c #1F1F1F",
";@	c #7A502D",
">@	c #915F38",
",@	c #372B22",
"'@	c #1F231E",
")@	c #584D42",
"!@	c #1C1B1B",
"~@	c #272727",
"{@	c #5A5A5A",
"]@	c #5F5F5F",
"^@	c #424242",
"/@	c #0F0F0F",
"(@	c #0C0C0C",
"_@	c #724D2A",
":@	c #6F4B29",
"<@	c #161713",
"[@	c #37312C",
"}@	c #1D1C1C",
"|@	c #464646",
"1@	c #323232",
"2@	c #1E1E1E",
"3@	c #090909",
"4@	c #6E4A29",
"5@	c #563D23",
"6@	c #212121",
"7@	c #202020",
"8@	c #815530",
"9@	c #4F3B28",
"0@	c #222222",
"a@	c #585858",
"b@	c #5D5D5D",
"c@	c #353535",
"d@	c #141414",
"e@	c #7F542F",
"f@	c #684726",
"g@	c #625A54",
"h@	c #535353",
"i@	c #555353",
"j@	c #363636",
"k@	c #98633B",
"l@	c #AF9A90",
"m@	c #8F8B89",
"n@	c #2A2D29",
"o@	c #2B2E2A",
"p@	c #20251E",
"q@	c #9E938E",
"r@	c #2B2B2B",
"s@	c #8C5C37",
"t@	c #DA8F60",
"u@	c #312B28",
"v@	c #3D3D3D",
"w@	c #7A7A7A",
"x@	c #737373",
"y@	c #5E5E5E",
"z@	c #282827",
"A@	c #121212",
"B@	c #101010",
"C@	c #AD7147",
"D@	c #E29767",
"E@	c #25201A",
"F@	c #989898",
"G@	c #8E8E8E",
"H@	c #606060",
"I@	c #1C1C18",
"J@	c #191919",
"K@	c #0D0D0D",
"L@	c #BC7A4D",
"M@	c #E39767",
"N@	c #4F4C4B",
"O@	c #535252",
"P@	c #294425",
"Q@	c #4C4B4B",
"R@	c #161515",
"S@	c #2E2E2E",
"T@	c #805430",
"U@	c #C88153",
"V@	c #E89C6D",
"W@	c #34312E",
"X@	c #313231",
"Y@	c #242524",
"Z@	c #2E3A2C",
"`@	c #2E2F2D",
" #	c #060606",
".#	c #94603A",
"+#	c #D88D5D",
"@#	c #E19869",
"##	c #3D392E",
"$#	c #474947",
"%#	c #494A49",
"&#	c #3A382D",
"*#	c #080604",
"=#	c #A56B41",
"-#	c #DE9263",
";#	c #D69166",
">#	c #5F5E5C",
",#	c #7F7F7E",
"'#	c #787674",
")#	c #7F7A76",
"!#	c #817E7A",
"~#	c #070707",
"{#	c #252525",
"]#	c #232323",
"^#	c #7A512F",
"/#	c #B17145",
"(#	c #DF9464",
"_#	c #D18D62",
":#	c #25221D",
"<#	c #201A11",
"[#	c #1D160A",
"}#	c #4A4949",
"|#	c #383633",
"1#	c #875934",
"2#	c #BF7B4E",
"3#	c #DF9667",
"4#	c #BD8059",
"5#	c #211E1B",
"6#	c #242322",
"7#	c #28231E",
"8#	c #333231",
"9#	c #121211",
"0#	c #98623A",
"a#	c #CC8556",
"b#	c #E29868",
"c#	c #AE7653",
"d#	c #1F1D1C",
"e#	c #282620",
"f#	c #413D3B",
"g#	c #272624",
"h#	c #2B2A2A",
"i#	c #151414",
"j#	c #4B391F",
"k#	c #A36940",
"l#	c #E69A6A",
"m#	c #996645",
"n#	c #221F19",
"o#	c #23221F",
"p#	c #484441",
"q#	c #3A3430",
"r#	c #131210",
"s#	c #7E5332",
"t#	c #BB7A4D",
"u#	c #DC9162",
"v#	c #E79B6B",
"w#	c #744E36",
"x#	c #2C2720",
"y#	c #413D3A",
"z#	c #5B5550",
"A#	c #3A3735",
"B#	c #131110",
"C#	c #44331D",
"D#	c #9A643D",
"E#	c #CE8759",
"F#	c #E29666",
"G#	c #E59969",
"H#	c #533726",
"I#	c #201E1A",
"J#	c #292723",
"K#	c #3B3936",
"L#	c #615954",
"M#	c #3F3B38",
"N#	c #12100E",
"O#	c #573F23",
"P#	c #B4754A",
"Q#	c #DC9363",
"R#	c #E29667",
"S#	c #1D1612",
"T#	c #201D1A",
"U#	c #2C2B21",
"V#	c #44413E",
"W#	c #585554",
"X#	c #110F0E",
"                                                                                                                                ",
"                                                                                                                                ",
"                                                                                                                                ",
"                                                                                                                                ",
"                                                                                                                                ",
"                                                                                                                                ",
"                                                                                                                                ",
"                                                                                                                                ",
"                                                                                                                                ",
"                                                                                                                                ",
"                                                                                                                                ",
"                                                                                                                                ",
"                                                                                                                                ",
"                                                                                                                                ",
"                                                                                                                                ",
"                                                                                                                                ",
"                                                                                                                                ",
"                                                              . +                                                               ",
"                                                            @ # $ %                                                             ",
"                                                            & * = -                                                             ",
"                                                          ; > , ' )                                                             ",
"                                                          ! ~ { ] ^ /                                                           ",
"                                                        ( _ : < [ } |                                                           ",
"                                                        1 2 3 4 5 6 7 8                                                         ",
"                                                      9 0 a b c d e f g h                                                       ",
"                                                      i j k l m n o p q r                                                       ",
"                                                      s t u v w x y z A B 9                                                     ",
"                                                    C D E F G w w H I J K L M                                                   ",
"                                                  N O P Q R S w w T U V W X Y                                                   ",
"                                                  Z `  ...+.w @.@.w #.$.%.&.*.                                                  ",
"                                                =.-.;.>.,.'.w ).).w !.~.{.].^.                                                  ",
"                                                /.(._.:.<.[.w }.}.w |.1.2._.3.4.                                                ",
"                                                5.6.7.8.9.0.a.b.b.a.c.d d.e.f.g.                                                ",
"                                                  h.i.j.k.l.m.n.n.m.|.o.p.q.r.                                                  ",
"                                                  s.t.u.v.w.x.y.y.x.z.A.B.C.D.                                                  ",
"                                                  E.F.G.H.I.J.K.L.M.N.O.P.Q.                                                    ",
"                                                    R.S.T.U.V.W.W.X.Y.Z.`. +.+                                                  ",
"                                                  ++@+#+$+%+&+*+*+=+-+;+>+,+'+)+                                                ",
"                                                !+~+{+]+^+/+(+_+:+<+[+}+|+1+2+3+                                                ",
"                                              4+5+6+7+8+9+0+a+b+b+c+d+e+f+g+h+i+j+                                              ",
"                                              7+5+k+l+m+n+o+p+b+b+b+b+q+r+s+t+u+v+                                              ",
"                                              w+x+y+  z+A+B+C+b+b+D+E+s+F+t+r+G+v+                                              ",
"                                                H+    I+J+K+F+L+L+M+N+O+P+Q+R+h+k+S+                                            ",
"                                                      T+U+V+W+X+X+W+V+Y+Z+`+t+O+ @ @.@                                          ",
"                                                      T++@@@#@$@$@#@%@&@*@5+=@6+-@7+y+                                          ",
"                                                    ;@>@,@%@#@#@#@#@'@)@!@~@{@]@^@y+/@(@                                        ",
"                                                    _@:@<@W+#@#@#@#@W+[@}@|@1@5+2@/@/@3@                                        ",
"                                                    4@5@6@%@#@#@#@#@%@7@E+2@{+~@w+k+y+x+                                        ",
"                                                    8@9@6@@@#@#@#@#@@@6@~@0@a@b@c@5+d@{+                                        ",
"                                                  e@f@g@h@W+#@#@#@#@W+h@i@j@6@k+2@x+k+{+                                        ",
"                                                  f@k@l@m@n@o@p@p@o@n@m@q@r@5+{+{+7+{+w+d@                                      ",
"                                                  s@t@u@v@w@x@y@y@x@w@v@z@w+5+{+{+A@A@=@B@                                      ",
"                                                  C@D@E@b@F@G@H@H@G@F@b@I@J@7+w+5+B@K@B@y+                                      ",
"                                                  L@M@N@O@g+O+P@P@O+g+O@Q@R@{+S@5+A@7+2@                                        ",
"                                                T@U@V@W@j@X@Y@Z@Z@Y@X@j@`@d@{+=@6+ #x+/@                                        ",
"                                                .#+#@###$#$#$#%#%#$#$#$#&#*#{+2@=@H+d@=@                                        ",
"                                                =#-#;#>#,#'#)#!#!#)#'#,#>#!+~# #(@{#/@]#                                        ",
"                                              ^#/#(#_#:#<#[#}#|#|#}#[#<#:#0@7@ @ @{+/@                                          ",
"                                              1#2#3#4#5#6#7#8#r@r@8#7#6#5#9#2@6@d@/@6@                                          ",
"                                              0#a#b#c#d#e#f#g#h#h#g#f#e#d#i#/@(@7+]#                                            ",
"                                            j#k#3#l#m#n#o#s+p#q#q#p#s+o#n#r#                                                    ",
"                                            s#t#u#v#w#n#x#y#z#A#A#z#y#x#n#B#                                                    ",
"                                          C#D#E#F#G#H#I#J#K#L#M#M#L#K#J#I#N#                                                    ",
"                                          O#P#Q#R#D@S#T#U#V#W#t+t+W#V#U#T#X#                                                    "};
