/* XPM */
static char * weapon_idle_xpm[] = {
"64 64 232 2",
"  	c None",
". 	c #FFFFFF",
"+ 	c #080808",
"@ 	c #0A0A0A",
"# 	c #666666",
"$ 	c #0B0B0B",
"% 	c #4B371B",
"& 	c #2F371F",
"* 	c #332B13",
"= 	c #3F2F17",
"- 	c #2B230F",
"; 	c #533F1F",
"> 	c #5F4323",
", 	c #774F2B",
"' 	c #6B4727",
") 	c #533F2F",
"! 	c #4F3B23",
"~ 	c #000000",
"{ 	c #8F5F37",
"] 	c #BF7B4B",
"^ 	c #AB6F43",
"/ 	c #875733",
"( 	c #383838",
"_ 	c #444444",
": 	c #585858",
"< 	c #2C2C2C",
"[ 	c #343434",
"} 	c #404040",
"| 	c #484848",
"1 	c #232323",
"2 	c #787878",
"3 	c #858585",
"4 	c #7A7A7A",
"5 	c #757575",
"6 	c #6B6B6B",
"7 	c #6E6E6E",
"8 	c #666666",
"9 	c #727272",
"0 	c #707070",
"a 	c #606060",
"b 	c #454545",
"c 	c #303030",
"d 	c #555555",
"e 	c #5E5E5E",
"f 	c #000000",
"g 	c #1A1A1A",
"h 	c #282828",
"i 	c #5D5D5D",
"j 	c #565656",
"k 	c #121212",
"l 	c #5A5A5A",
"m 	c #161616",
"n 	c #525252",
"o 	c #4D4D4D",
"p 	c #0A0A0A",
"q 	c #434343",
"r 	c #262626",
"s 	c #111111",
"t 	c #272727",
"u 	c #2A2A2A",
"v 	c #3D3D3D",
"w 	c #4B4B4B",
"x 	c #C2C2C2",
"y 	c #575757",
"z 	c #393939",
"A 	c #3C3C3C",
"B 	c #313131",
"C 	c #373737",
"D 	c #2F2F2F",
"E 	c #222222",
"F 	c #242424",
"G 	c #0B0B0B",
"H 	c #080808",
"I 	c #505050",
"J 	c #8E8E8E",
"K 	c #1C1C1C",
"L 	c #323232",
"M 	c #545454",
"N 	c #050505",
"O 	c #171717",
"P 	c #363636",
"Q 	c #424242",
"R 	c #1E1E1E",
"S 	c #191919",
"T 	c #101010",
"U 	c #464646",
"V 	c #3E3E3E",
"W 	c #656565",
"X 	c #5B5B5B",
"Y 	c #535353",
"Z 	c #7E7E7E",
"` 	c #151515",
" .	c #3A3A3A",
"..	c #0F0F0F",
"+.	c #252525",
"@.	c #212121",
"#.	c #1D1D1D",
"$.	c #020202",
"%.	c #4C4C4C",
"&.	c #2D2D2D",
"*.	c #2E2E2E",
"=.	c #1F1F1F",
"-.	c #939393",
";.	c #141414",
">.	c #090909",
",.	c #1B1B1B",
"'.	c #131313",
").	c #3B3B3B",
"!.	c #875733",
"~.	c #A36B3F",
"{.	c #AB6F43",
"].	c #774F2B",
"^.	c #533F1F",
"/.	c #4E4E4E",
"(.	c #353535",
"_.	c #959595",
":.	c #0E0E0E",
"<.	c #181818",
"[.	c #CF8353",
"}.	c #8F5F37",
"|.	c #4B371B",
"1.	c #332B13",
"2.	c #696969",
"3.	c #3F3F3F",
"4.	c #333333",
"5.	c #8D8D8D",
"6.	c #9C9C9C",
"7.	c #060606",
"8.	c #6B4727",
"9.	c #2B230F",
"0.	c #4A4A4A",
"a.	c #4F4F4F",
"b.	c #909090",
"c.	c #8F8F8F",
"d.	c #202020",
"e.	c #9B633B",
"f.	c #2B2B2B",
"g.	c #414141",
"h.	c #292929",
"i.	c #979797",
"j.	c #7D7D7D",
"k.	c #474747",
"l.	c #7F7F7F",
"m.	c #A7A7A7",
"n.	c #626262",
"o.	c #5F4323",
"p.	c #7F532F",
"q.	c #B37347",
"r.	c #D78B5B",
"s.	c #828282",
"t.	c #A5A5A5",
"u.	c #070707",
"v.	c #030303",
"w.	c #3F2F17",
"x.	c #BF7B4B",
"y.	c #DF9363",
"z.	c #929292",
"A.	c #A0A0A0",
"B.	c #616161",
"C.	c #9A9A9A",
"D.	c #8C8C8C",
"E.	c #636363",
"F.	c #A8A8A8",
"G.	c #9F9F9F",
"H.	c #1F170B",
"I.	c #838383",
"J.	c #AEAEAE",
"K.	c #0D0D0D",
"L.	c #969696",
"M.	c #B4B4B4",
"N.	c #494949",
"O.	c #515151",
"P.	c #6D6D6D",
"Q.	c #B1B1B1",
"R.	c #7C7C7C",
"S.	c #6F6F6F",
"T.	c #ABABAB",
"U.	c #010101",
"V.	c #5F5F5F",
"W.	c #5C5C5C",
"X.	c #0B1707",
"Y.	c #040404",
"Z.	c #646464",
"`.	c #0C0C0C",
" +	c #797979",
".+	c #747474",
"++	c #878787",
"@+	c #737373",
"#+	c #7B7B7B",
"$+	c #777777",
"%+	c #6C6C6C",
"&+	c #676767",
"*+	c #6A6A6A",
"=+	c #767676",
"-+	c #717171",
";+	c #FFE3D3",
">+	c #DBDBDB",
",+	c #BFBFBF",
"'+	c #C7C7C7",
")+	c #B3B3B3",
"!+	c #17330F",
"~+	c #13230B",
"{+	c #E79B6B",
"]+	c #EFA373",
"^+	c #170F07",
"/+	c #E7E7E7",
"(+	c #EFEFEF",
"_+	c #CBCBCB",
":+	c #FFB383",
"<+	c #8B8B8B",
"[+	c #F7AB7B",
"}+	c #1F4317",
"|+	c #37732B",
"1+	c #533F2F",
"2+	c #27531B",
"3+	c #439337",
"4+	c #43331B",
"5+	c #4F3B23",
"6+	c #D3D3D3",
"7+	c #5F4B37",
"8+	c #67533F",
"9+	c #775F4B",
"0+	c #676B4F",
"a+	c #675333",
"b+	c #574333",
"c+	c #836B57",
"d+	c #A78F77",
"e+	c #7B634F",
"f+	c #9B7F6B",
"g+	c #775F3F",
"h+	c #373F27",
"i+	c #474F33",
"                                                                                                                                ",
"                                                                                                                                ",
"                                                                                                                                ",
"                                                                                                                                ",
"                                                                                                                                ",
"                                                                                                                                ",
"                                                                                                                                ",
"                                                                                                                                ",
"                                                                                                                                ",
"                                                                                                                                ",
"                                                                                                                                ",
"                                                                                                                                ",
"                                                                                                                                ",
"                                                                                                                                ",
"                                                                                                                                ",
"                                                                                                                                ",
"                                                                                                                                ",
"                                                                                                                                ",
"                                                                                                                                ",
"                                                                                                                                ",
"                                                                                                                                ",
"                                                                                                                                ",
"                                                                                                                                ",
"                                                                                                                                ",
"                                                                                                                                ",
"                                                                                                                                ",
"                                                                                                                                ",
"                                                                                                                                ",
"                                                                                                                                ",
"                                                                                                                                ",
"                                                                                                                                ",
"                                                              q q                                                               ",
"                                                              e e                                                               ",
"                                                              O.O.                                                              ",
"                                                              N.N.                                                              ",
"                                                            b V V b                                                             ",
"                                                      L @.  P w w P       Z._                                                   ",
"                                                  s E =.c ~.( V V P   O.P P : R                                                 ",
"                                                '.E K E , 7+B } } c P Q C 4.6 (                                                 ",
"                                              s <.,.m ! ~.8+B B B D L V (.L U j C                                               ",
"                                              O S m ` % q.k.&.D D D c z v ( ).@+o                                               ",
"                                              #.O K.  ; R.B *.B B [ P  .V  .3.*+O.                                              ",
"                                                T     > I ).).3.3.w N.t v U k.o r b                                             ",
"                                                      , ) *.E t t +.D k _ w C u r t r                                           ",
"                                                      p.) ,.X.h h X.#.r } E F h 1 O T                                           ",
"                                                    ' { = S X.X.X.X.F _ d.h.I : v ....K.                                        ",
"                                                    ' ' ,.<.X.X.X.X.g D =.b L r 1 ....$                                         ",
"                                                    ' ; E O X.X.X.X.O 1 c E +.*.d.O :.<.                                        ",
"                                                    p.) h <.X.X.X.X.<.h L 1 n j B g ;.,.                                        ",
"                                                  , , B.j #.X.X.X.X.#.j W.(.h 1 @.<.<.,.                                        ",
"                                                  ' e.-.Z P [ h.h.[ P Z c.u ,.,.,.m g K s                                       ",
"                                                  / r.b+k.2 @+: : @+2 k.v ,.g ,.,.k '.` ..                                      ",
"                                                  ^ y.! e b.3 X X 3 b.e =.S m @.g T :.k :.                                      ",
"                                                  ] y.7+a Q ( h+h+( Q a ).<.g f.S T ` #.                                        ",
"                                                p.[.y.) } 4.h L L h 4.} f.m K S #.u.O s                                         ",
"                                                e.r.y.) o %.%././.%.%.o L $ ,.#.m k ;.`                                         ",
"                                                ~.y.{+%..+7 @+5 5 @+7 .+w ;.:.:.T 1 ..E                                         ",
"                                              , ^ y.y.h *.u O.3.3.O.u *.r d.=.t r ,.T                                           ",
"                                              / q.y.[.R +.@.P < < P @.+.R ..R E <.s =.                                          ",
"                                              e.r.{+^ K r  .f.< < f. .r K '.k ..<.@.                                            ",
"                                            ! ^ {+y.{ =.E ( _ [ [ _ ( E =.T                                                     ",
"                                            , ] y.{+! - h C j C C j C h - s                                                     ",
"                                          % e.r.y.{+= =.+.z l A A l z +.=.T                                                     ",
"                                          ; q.r.y.y.= d.h A : z z : A h d.T                                                     "};
