/* XPM */
static char *_24a55ef46eb4453cdb14dbd9e84fcafTEWuj7Z2Rxue51qW[] = {
/* columns rows colors chars-per-pixel */
"64 64 202 2 ",
"   c None",
".  c #341F17",
"X  c #19241D",
"o  c #2D251D",
"O  c #1D2D23",
"+  c #372A22",
"@  c #3B2E26",
"#  c #29332A",
"$  c #3E332A",
"%  c #42342C",
"&  c #493C2C",
"*  c #453D32",
"=  c #543830",
"-  c #344C3B",
";  c #39513D",
":  c #4C4536",
">  c #54433A",
",  c #5B4B3B",
"<  c #5A4638",
"1  c #5B553B",
"2  c #55513B",
"3  c #6C4D3E",
"4  c #6C4137",
"5  c #744036",
"6  c #655A3D",
"7  c #2D5B4B",
"8  c #315E4D",
"9  c #395745",
"0  c #3D624D",
"q  c #346252",
"w  c #396756",
"e  c #3D735D",
"r  c #455E46",
"t  c #4D5E4A",
"y  c #465945",
"u  c #5B5544",
"i  c #585A48",
"p  c #614C44",
"a  c #6B4C41",
"s  c #684741",
"d  c #764A41",
"f  c #615B43",
"g  c #6E5A45",
"h  c #6B5449",
"j  c #6A5245",
"k  c #745C43",
"l  c #74554B",
"z  c #78594B",
"x  c #7C5D52",
"c  c #416046",
"v  c #44644B",
"b  c #4B654C",
"n  c #466A4F",
"m  c #4D6B4E",
"M  c #496147",
"N  c #51644E",
"B  c #526A4F",
"V  c #496451",
"C  c #456D53",
"Z  c #4C6C53",
"A  c #4D6E58",
"S  c #436651",
"D  c #536C53",
"F  c #5A6D55",
"G  c #546D59",
"H  c #5B6E59",
"J  c #556652",
"K  c #447156",
"L  c #4D7155",
"P  c #44755E",
"I  c #4C755A",
"U  c #4D7B5D",
"Y  c #547354",
"T  c #597356",
"R  c #557A57",
"E  c #597857",
"W  c #53745A",
"Q  c #5B755A",
"!  c #547B5C",
"~  c #5B7A5C",
"^  c #696145",
"/  c #6A634B",
"(  c #6C684C",
")  c #61634F",
"_  c #76634A",
"`  c #656C55",
"'  c #636E5A",
"]  c #696956",
"[  c #7A6355",
"{  c #736B54",
"}  c #736E5C",
"|  c #776657",
" . c #62755C",
".. c #6B735B",
"X. c #627B5E",
"o. c #73745D",
"O. c #467B62",
"+. c #4C7D63",
"@. c #497D69",
"#. c #577660",
"$. c #5C7660",
"%. c #557D62",
"&. c #5B7D62",
"*. c #5C7F69",
"=. c #726E60",
"-. c #647660",
";. c #647C62",
":. c #6A7C63",
">. c #7E7761",
",. c #727C65",
"<. c #767768",
"1. c #814D43",
"2. c #84594C",
"3. c #815F51",
"4. c #8C665A",
"5. c #896A5B",
"6. c #846659",
"7. c #94685B",
"8. c #966E60",
"9. c #8E7464",
"0. c #897864",
"q. c #9C7564",
"w. c #967C70",
"e. c #AA7B6C",
"r. c #B37E6A",
"t. c #A67F70",
"y. c #55825E",
"u. c #5D815E",
"i. c #63815F",
"p. c #468366",
"a. c #4D8365",
"s. c #47836A",
"d. c #4D856A",
"f. c #4C8A6D",
"g. c #548264",
"h. c #5B8364",
"j. c #5D8A65",
"k. c #548569",
"l. c #5C856A",
"z. c #538B6C",
"x. c #5C8A6C",
"c. c #508965",
"v. c #53926F",
"b. c #468B70",
"n. c #4D8C72",
"m. c #538D72",
"M. c #5B8D72",
"N. c #578770",
"B. c #4C9173",
"V. c #4D957A",
"C. c #4D9B7E",
"Z. c #449073",
"A. c #549274",
"S. c #5A9474",
"D. c #5B9975",
"F. c #549579",
"G. c #5B977B",
"H. c #549A7B",
"J. c #5C9A7B",
"K. c #648364",
"L. c #6A8264",
"P. c #628A66",
"I. c #698967",
"U. c #63846B",
"Y. c #6C846B",
"T. c #638B6B",
"R. c #6B8B6B",
"E. c #72856A",
"W. c #728C6C",
"Q. c #62946F",
"!. c #6C916D",
"~. c #619066",
"^. c #74916F",
"/. c #638C72",
"(. c #688871",
"). c #798970",
"_. c #659474",
"`. c #6A9373",
"'. c #629975",
"]. c #6A9975",
"[. c #61947C",
"{. c #649B7A",
"}. c #6B9A7B",
"|. c #69947A",
" X c #739473",
".X c #749C76",
"XX c #7E9B79",
"oX c #789A77",
"OX c #59A178",
"+X c #78A47E",
"@X c #9C8471",
"#X c #A68575",
"$X c #539B82",
"%X c #609B85",
"&X c #57A284",
"*X c #5AA383",
"=X c #52A489",
"-X c #63A58B",
";X c #66A587",
":X c #71A182",
">X c #68AC90",
",X c #9C938A",
/* pixels */
"                                B.k.l._._.T.P.T.h.h.}./.x./.U./.T./.U.l.k.g.! %.x.%.h.h.l.h.x.%.                                ",
"                                A.R K.K.I.R. XK.K.R.W.K.;.L.E.X.E.;.Y.;.Q Q Q Q ~ &.~ E ~ E T n                                 ",
"                                a.R Q ! `.+X.X_.x.X.X.X.K.:. .:. .-.Q F F G G ! K.R.R.`.! D D b                                 ",
"                                J.h.U .XQ.H.H.D.A.U.X.;.L.-.:.:.-.-.X.~ T Q %. XX.W g.T.K.! N D                                 ",
"                                _ k W.D.C.*X&XA.J.%.X. .D F Q F F H J D D Q K.R.+.M.z.n.k.Z N J                                 ",
"                                ^ g l.&XH.x.T.M.S.T Q F ;.l.! l.%.h.W ;.F ~ W.l.z.l.U.@.z.T Z Z                                 ",
"                                / / x.C.@.V V +.].T ~ R.                W.G X.M.e v S P x.r Y Z                                 ",
"                                1 2 I h.n.q 8 G.].I.K.W                 #.&.I.Q O.7 q d.! Z D W                                 ",
"                                f.a.U v x.S.D.x.~ X.W.                     XQ Q E H.S.&.v %.Q !                                 ",
"                                c.! L I C b M m K.X.L.W.                .XT T X.r F.%.W ! &.T Y                                 ",
"                                p.! T Q x.W Z ! T X.X. .^.            +X&.Q X.D k.;X*. . .Q D D                                 ",
"                                f.K.' X.&.L Z Z   Y K.;.:. X        oXQ X.X.D   -X;X#.F Q Q T !                                 ",
"                                A.~ :.X.! h.        E K.X.L.R.R._.`.~ X.X.D         `.~ Y Q D W                                 ",
"                                z.T ~ E ! !           Q K.~ T D g.&.h.Q m           x.E E ~ D D                                 ",
"                                M.Q Q X.&.h.            E ~ D     ! Q D             I.~ E Q D D                                 ",
"                                x.L.X.E Q E              XT         K.D             }.X.T Q Q W                                 ",
"                                M.~ ~ X.W ~             R.h.        `.&.            `.;.~ ;. .G                                 ",
"                                S.~ T T ! W             R.Q I.    }.U.L.            Y.K.h.;.T W                                 ",
"                                B.E E m E Q           .XQ Q T K.u.P.R.X. X          Y.;.k.U.! A                                 ",
"                                p.h.Y E T Q         .XD X.K.W A A h.g.K.X.XX        L.;.W Q D T                                 ",
"                                p.Y E ~ T E K.W   P.Y ~ ~ L         J.x.L.E.XX  R R.L.~ Q ~ Q Z                                 ",
"                                O.Q Q X.m R L h.Q.! Y E c.            }.W.;.;.!.x.~ Q D Q  .B b                                 ",
"                                g.E Q %.T.P.R.S.z.x.h.z.                &.;.L.z._.j.`./.#.Q G b                                 ",
"                                c.T !  Xu.I a.m.m.&.W                     X.x.{.S.a.k.].R.&.F n                                 ",
"                                a.W h.L.O.S.S.d.g.M I %.                /._.}.{.m.S.S.z.i.! ~ T                                 ",
"                                a.L P.! z.Q.`.z.h.m W &.                }.[.].f.m./.l.d.R.T W D                                 ",
"                                a.W h.%.O.v v O.k.N W Q K.h.R.K.T./._._._.! x.,.l z 4.5...W W D                                 ",
"                                g.! h.~ a.8 8 f.l.T ! Q ~ K.&.&.&.h.h.h.k.M.#X[ a p 6.9.3., W G                                 ",
"                                k.L h.E ! h.x.&.&.T K.R. XW.R.^.!.~.!.^.x.x a < # * = # l 4.h D                                 ",
"                                p.+.h.Y Y E K.~ ~ T T  .B T F ;.T E m T ).d 4 O J [ p ~ 9 a h i                                 ",
"                                6 k u.Y Y T Q X.~ T X. .Q E ;.;.~ ~ X.Q 8.t.: -.] e.h H ;.y p >                                 ",
"                                6 , Y Y W E T T Q L.:.:.E Y X.~ T X.~ ~ 5 r.g 0.6.,X<.9.@X>.: p                                 ",
"                                1 f Y Y Y Y E E ~ ~ :. .X. .Q E Q Q Q ~ 1.8.a , j =.=.1.$ $ 7.7.                                ",
"                                2 & m Y Y Y Y ~ ~ ~ F  .:.Q  . .Q T ~ T j 2.: u < } 1.+ i , 2.s                                 ",
"                                O.+.P.Y L Y E R &.T ~ :.:.-. .,.E.X.X.X.) [ z ..>.0.3 k { 2.l +                                 ",
"                                a.W u.E ! A.H.S.&.;.F N J t N J b Z M G ; [ 9.u } 5.> 0.e.r.7.O                                 ",
"                                z.! R.h.d.F.&X=XM.G %.#.D ~ Q G G G W G $.- | #Xw.l l s q.7.X b                                 ",
"                                a.! h.z.p.z.S.d.G.W #.W Q F t t J J G $.F ~ - % 5.7.5.x @ X C D                                 ",
"                                k.! ~ z.e 0 0 P T.V G U./.l.M.+./.U.l.g.l.&.R.u % o . o u N l.T                                 ",
"                                a.! I ! b.8 8 k.Q Z T /./.&.&.l.W Q K.! ~ W g.-.{ u 3 ] o.F &.H                                 ",
"                                O.~ I v I A.k.~ y ! *.M.:.Q $.&.Q Q ~ T %.F I $...' [ } ) #.F Q                                 ",
"                                a.E n K E T K.M &.H x./. .-.;.&.~ Q ~ Q %.! D Z ..k.z } F  .Q Q                                 ",
"                                d.m Z L K.Q ~ ~ W #.#.l.:.:.~ |.F ~ ~ T T l.E L ..C.{ } F  .Q D                                 ",
"                                a.L Y I P.m K.m ! &.l./.;. .;.g.T ;.Q D Q g.! W L.V.../ Q Q D G                                 ",
"                                k.m Y R h.~ ~ m W &.U.U.X.X.X.U. .X.Q X.Q ! ~ ! :./.:./ K.Q T n                                 ",
"                                a.D ~ W P.E ~ n ! &.;.Y.X.X.:._.Q  . .H D %.h.! L.M.R.` M.h.D D                                 ",
"                                a.D B W P.Y ~ Z W h.U.Y.:.&.(.k.Q  .~ D T ! ! ! h.x.T.D l.E D T                                 ",
"                                O.Y D R h.Y i.D W Q l.U.U.U.l.T.;.~ Y Y Y W ! %.T.l.T.D ~ T G Z                                 ",
"                                z.R E I y.R ~ W ! Q ! Q Q  .:.(.~ Y E Z Q h.! %.'.x.].B &.Q m G                                 ",
"                                a.Y D W h.m &.G Q Q Q Q -.Q  .;.T Y R Y Q K.h.x.}._.].L ! D Y D                                 ",
"                                d.E ~ I h.m R m D Q ;.~ ~ :.~ Q T Y Y E Q &.U.%.`.h.P.W %.R L Z                                 ",
"                                z.~ E Z R Y R m W ! h.D X.Q ~ ~ W E E R Q U.K.R j.~ R.Y ! Y D W                                 ",
"                                z.i.m n ! Y E T L g.W E T T ~ Y E ~ F E Q ! U.h.j.~ P.v I D Q Z                                 ",
"                                z.~ m C y.E u.m W Q g.U ! ! I I U ! R L h.M.U.&.j.! h.n R T m v                                 ",
"                                A.~ E U j.~ K.j.U.:.h.g.l.h.~ &.h.h.! ! x.P.;.h.'.S.x.! ! D B n                                 ",
"                                F.a.K j.x.M.G.;X:Xh.l.k.g.g.h.! P.h.x.z.g.y.c.OXS.F.v.P.K.! G Z                                 ",
"                                ^ ( x.z.b.H.M.%X[.!.T.~.T._.'.].!.!..X X X{.;XH.V.J.J.f.! I D &.                                ",
"                                ( 1 k.Z.s.%.I O.A.R L T ~ ~ h.g.E ~ E ;.~ P.c.C.A.].}.m.%.Z W #.                                ",
"                                f / k.H.e 9 9 w M.&.E ;.u.u.K.P.E I.~ u.P.h.z.&XO.v 0 s.! c W W                                 ",
"                                u : n k.$X7 7 V.k.b M b v c r n M r m Z C @.d.&X$Xw q B.U K I I                                 ",
"                                V.O.! L G.=X=XC.C I ! L ! L Z &.W ! #.A L L +.x.>X*X$Xg.K +.K P                                 ",
"                                n.x.h.a.C C C I U E ~ ~ T ~ ~ E ;.D &.Q D D -.U.[.@.P I U R Z K                                 ",
"                                B.k.U Y Z Z Y D T h.;.D T Q Q T T Q W b G Q -.D D W L T L Y D v                                 ",
"                                n.O.I L Z Z L L L W L L Z L n Z A I I W ! G D Z Z Z L W n n A C                                 "
};
